<svg width="95" height="96" viewBox="0 0 95 96" fill="none" xmlns="http://www.w3.org/2000/svg">
<rect width="94.6" height="95.6" rx="10" fill="#34A0EF"/>
<path d="M89.7908 45.794C85.786 50.7234 77.9389 50.3384 77.9389 50.3384C73.0994 71.4081 43.8729 82.1317 23.5807 76.8637C3.29055 71.5976 6.08176 47.1404 6.08176 47.1404H65.4671C70.3678 47.1404 70.7412 45.6354 70.7412 45.6354C66.3974 35.2253 73.0996 29.644 73.0996 29.644C78.3125 30.5863 79.6142 39.6149 79.6142 39.6149C83.8927 38.8392 87.329 39.7619 89.431 40.6499C89.6415 42.3388 89.764 44.0548 89.7908 45.794Z" fill="#F2F2F2"/>
<path d="M20.7265 37.6085H12.4106V45.2588H20.7265V37.6085Z" fill="#F2F2F2"/>
<path d="M31.1769 37.6085H22.861V45.2588H31.1769V37.6085Z" fill="#F2F2F2"/>
<path d="M62.5246 37.6085H54.2087V45.2588H62.5246V37.6085Z" fill="#F2F2F2"/>
<path d="M52.0759 37.6085H43.7599V45.2588H52.0759V37.6085Z" fill="#F2F2F2"/>
<path d="M52.0759 18.0442H43.7599V25.6944H52.0759V18.0442Z" fill="#F2F2F2"/>
<path d="M41.6255 37.6085H33.3096V45.2588H41.6255V37.6085Z" fill="#F2F2F2"/>
<path d="M31.1769 27.8254H22.861V35.4757H31.1769V27.8254Z" fill="#F2F2F2"/>
<path d="M52.0759 27.8254H43.7599V35.4757H52.0759V27.8254Z" fill="#F2F2F2"/>
<path d="M41.6255 27.8254H33.3096V35.4757H41.6255V27.8254Z" fill="#F2F2F2"/>
</svg>
