<svg width="96" height="96" viewBox="0 0 96 96" fill="none" xmlns="http://www.w3.org/2000/svg">
<rect x="0.354431" width="95.5996" height="95.5996" rx="10" fill="#43853D"/>
<g clip-path="url(#clip0)">
<path d="M48.1543 86.7638C47.0747 86.7638 46.067 86.4769 45.1314 85.9748L35.5588 80.3085C34.1193 79.5196 34.8391 79.2327 35.2709 79.0892C37.2142 78.4437 37.5741 78.3002 39.5893 77.1526C39.8053 77.0092 40.0932 77.0809 40.3091 77.2244L47.6504 81.5996C47.9383 81.743 48.2982 81.743 48.5141 81.5996L77.2318 65.0311C77.5197 64.8876 77.6637 64.6007 77.6637 64.2421V31.1769C77.6637 30.8182 77.5197 30.5313 77.2318 30.3879L48.5141 13.8911C48.2262 13.7477 47.8664 13.7477 47.6504 13.8911L18.9328 30.3879C18.6449 30.5313 18.5009 30.89 18.5009 31.1769V64.2421C18.5009 64.529 18.6449 64.8876 18.9328 65.0311L26.7779 69.5498C31.0244 71.7015 33.6875 69.1912 33.6875 66.6808V34.0459C33.6875 33.6155 34.0473 33.1852 34.5512 33.1852H38.2218C38.6537 33.1852 39.0855 33.5438 39.0855 34.0459V66.6808C39.0855 72.3471 35.9906 75.6464 30.5926 75.6464C28.9372 75.6464 27.6416 75.6464 23.971 73.8533L16.4137 69.5498C14.5423 68.4739 13.3908 66.4656 13.3908 64.3139V31.2486C13.3908 29.0968 14.5423 27.0885 16.4137 26.0126L45.1314 9.44415C46.9307 8.44 49.3778 8.44 51.1772 9.44415L79.8949 26.0126C81.7662 27.0885 82.9178 29.0968 82.9178 31.2486V64.3139C82.9178 66.4656 81.7662 68.4739 79.8949 69.5498L51.1772 86.1183C50.2415 86.5486 49.1619 86.7638 48.1543 86.7638ZM57.0071 64.0269C44.4116 64.0269 41.8205 58.2889 41.8205 53.4116C41.8205 52.9813 42.1804 52.5509 42.6842 52.5509H46.4269C46.8587 52.5509 47.2186 52.8378 47.2186 53.2682C47.7944 57.0696 49.4498 58.9345 57.0791 58.9345C63.1249 58.9345 65.716 57.5717 65.716 54.3441C65.716 52.4792 64.9962 51.1164 55.5676 50.184C47.7224 49.395 42.8282 47.6736 42.8282 41.4335C42.8282 35.6238 47.7224 32.181 55.9275 32.181C65.1402 32.181 69.6745 35.3369 70.2503 42.2225C70.2503 42.4377 70.1783 42.6529 70.0344 42.868C69.8905 43.0115 69.6745 43.1549 69.4586 43.1549H65.716C65.3561 43.1549 64.9962 42.868 64.9242 42.5094C64.0605 38.5645 61.8294 37.2735 55.9275 37.2735C49.3059 37.2735 48.5141 39.5687 48.5141 41.2901C48.5141 43.3701 49.4498 44.0156 58.3746 45.1632C67.2274 46.3109 71.4019 47.9605 71.4019 54.1289C71.3299 60.4407 66.1478 64.0269 57.0071 64.0269Z" fill="white"/>
</g>
<defs>
<clipPath id="clip0">
<rect x="13.3908" y="8.69104" width="69.527" height="78.2179" rx="10" fill="white"/>
</clipPath>
</defs>
</svg>
