<svg width="95" height="95" viewBox="0 0 95 95" fill="none" xmlns="http://www.w3.org/2000/svg">
<rect width="94.5" height="94.5" rx="10" fill="#CD6699"/>
<path d="M77.8733 53.7334C76.5476 54.2287 76.6012 54.2374 75.8999 52.9755C75.0043 51.3681 74.5279 49.6778 74.4868 47.8394C74.4528 46.2619 74.8899 44.7956 75.4396 43.3572C75.8784 42.2133 75.3076 41.8097 74.3047 41.7056C73.575 41.6316 72.8221 41.6386 72.0906 41.7127C70.1886 41.9048 70.0013 42.0669 69.4964 43.8912C69.1967 44.9735 68.9575 46.0646 68.4598 47.092C67.2323 49.6212 65.837 52.0572 64.4062 54.4755C64.1492 54.9108 63.9369 55.3796 63.5748 55.7515C62.5381 54.218 62.1475 52.5243 62.06 50.7475C61.9726 48.9937 62.5168 47.3634 63.1144 45.7506C63.3161 45.2078 63.1484 44.8711 62.6737 44.6366C62.4632 44.5327 62.2277 44.4357 61.9975 44.418C60.7772 44.3229 59.5604 44.3369 58.3703 44.6665C57.835 44.8128 57.4853 45.109 57.3658 45.7029C57.1339 46.8645 56.7717 47.9924 56.2827 49.0783C54.9268 52.0852 53.5797 55.0974 52.2255 58.1062C51.048 60.7201 49.8882 63.3409 48.493 65.851C48.3949 66.0289 48.3129 66.3374 48.0667 66.2757C47.8169 66.214 47.9043 65.9108 47.8935 65.7029C47.8133 64.2223 48.2219 62.8104 48.5697 61.3969C49.1211 59.1601 49.724 56.934 50.3093 54.7044C50.477 54.0645 50.1951 53.6344 49.6581 53.3277C48.8856 52.8888 48.1165 52.8677 47.2799 53.4828C47.3941 52.5732 47.444 51.7748 47.4047 50.9765C47.3156 49.1963 46.4804 48.0383 45.0265 47.7703C43.9649 47.5746 42.9604 47.8796 42.0112 48.3237C39.7988 49.3584 38.0201 50.9183 36.5248 52.8112C36.3499 53.0315 36.1734 53.2343 35.92 53.3699C33.1135 54.8805 30.3088 56.391 27.5095 57.9156C27.2027 58.0848 27.0046 58.0372 26.7833 57.8027C25.3737 56.3099 23.7378 55.0778 22.1177 53.8282C19.8536 52.0798 17.511 50.423 15.5573 48.315C14.4155 47.0812 13.4627 45.7292 12.9863 44.0972C12.2084 41.4286 12.7901 38.9434 14.0854 36.5817C15.6181 33.7879 17.8911 31.6306 20.3977 29.7093C24.3783 26.66 28.744 24.2383 33.3454 22.2449C38.4982 20.0153 43.8435 18.5788 49.5367 18.7955C51.792 18.8819 53.981 19.2678 55.99 20.3589C57.412 21.1309 58.3541 22.2466 58.6199 23.884C58.9322 25.8016 58.4664 27.5731 57.6048 29.2529C55.6798 33.0054 52.6199 35.6634 49.0033 37.7449C45.9915 39.4775 42.7427 40.5775 39.3044 41.1537C37.4043 41.4727 35.497 41.6648 33.5862 41.3775C31.3934 41.0479 29.3666 40.3236 27.8662 38.5785C27.6931 38.3776 27.4736 38.2383 27.1793 38.3793C26.8777 38.5239 26.9009 38.7882 26.9295 39.0421C26.9508 39.2165 26.9991 39.3928 27.0614 39.5586C27.4629 40.6286 28.214 41.4357 29.0936 42.1408C31.3809 43.9791 34.0911 44.5186 36.9368 44.5732C39.7219 44.6279 42.4642 44.2789 45.1779 43.6374C51.2993 42.1921 56.4271 39.2256 60.1703 34.1423C62.4077 31.1037 63.8244 27.7548 63.6994 23.923C63.6192 21.4924 62.7912 19.3456 60.9981 17.6007C58.866 15.5296 56.2202 14.488 53.3815 13.8624C50.2198 13.1679 47.0263 13.0692 43.8005 13.4499C40.994 13.7812 38.2518 14.3489 35.5826 15.2565C31.4986 16.6472 27.5539 18.3551 23.7786 20.4314C19.9106 22.557 16.2654 24.9913 13.0683 28.0404C10.2386 30.7388 7.80675 33.7159 6.43648 37.4119C5.85131 38.9947 5.43024 40.6216 5.8228 42.3331C6.326 44.5363 7.42495 46.4434 8.87019 48.1637C11.0558 50.7688 13.7374 52.8203 16.5029 54.7803C18.7242 56.3559 21.049 57.7908 23.1828 59.4845C23.7876 59.9639 23.7841 59.9639 23.0722 60.3323C22.2408 60.7606 21.4004 61.173 20.5833 61.6295C17.2882 63.4698 14.1035 65.465 11.5038 68.2377C10.2246 69.6037 9.35563 71.1372 8.95078 72.8397C11.0667 75.963 13.5843 78.7972 16.43 81.27C21.2848 80.8963 25.0012 78.4005 27.747 74.2727C29.0727 72.2791 29.6936 70.0232 29.9273 67.6436C30.1326 65.5461 29.9166 63.5155 29.2921 61.5133C29.1834 61.1607 28.7783 60.81 28.9371 60.4998C29.0852 60.2142 29.5314 60.0697 29.8595 59.8829C31.1834 59.1232 32.5108 58.3742 33.8739 57.6005C33.9328 57.8896 33.8186 58.0588 33.7687 58.242C32.9872 61.0745 32.443 63.9298 33.0372 66.8734C33.4065 68.7064 34.0221 70.4319 35.1924 71.9495C36.3967 73.5112 39.0855 73.3331 40.1773 71.9072C41.2139 70.5535 41.9009 69.0271 42.6163 67.5078C43.0089 66.6758 43.3692 65.8299 43.744 64.989C43.6743 66.0007 43.6779 66.9877 43.7154 67.9713C43.7528 68.9407 43.9099 69.8978 44.4201 70.7544C45.0338 71.7837 46.1883 72.0835 47.2606 71.5334C48.3918 70.9535 49.1626 69.9982 49.7619 68.9618C52.3329 64.5044 54.7183 59.9516 56.6933 55.1979C57.1144 54.188 57.5462 53.1798 58.0226 52.057C58.0957 52.4254 58.144 52.651 58.1886 52.8767C58.6274 55.1416 59.409 57.2849 60.5402 59.2995C60.7828 59.7313 60.756 60.0292 60.4492 60.4433C59.4073 61.8446 58.2653 63.163 57.1395 64.4954C56.1939 65.6165 55.1822 66.6881 54.3829 67.9219C53.6658 69.0323 54.0778 70.1691 55.2715 70.4213C55.639 70.4989 56.0262 70.5218 56.4027 70.5164C58.4885 70.4918 60.4135 69.8766 62.2067 68.8684C64.6206 67.5095 66.0517 65.5176 65.9856 62.6817C65.9552 61.3915 65.6019 60.1525 65.0757 58.9697C64.9597 58.707 64.9543 58.5168 65.1274 58.27C66.7992 55.9045 68.2764 53.4247 69.6342 50.8725C69.8751 50.4232 70.0445 49.9242 70.4335 49.4855C70.4852 49.6634 70.5262 49.7746 70.5494 49.8891C70.9813 52.0042 71.5628 54.0716 72.6548 55.9594C72.9544 56.4759 72.8047 56.7383 72.3908 57.0838C70.9652 58.2806 69.7628 59.6765 68.8189 61.2752C68.0838 62.5196 67.5806 63.8485 67.586 65.3063C67.5913 66.9278 68.8474 67.8831 70.4478 67.5024C72.1161 67.1075 73.6629 66.436 75.0509 65.4331C78.0751 63.2458 78.9618 60.9386 78.0145 57.7184C77.6434 56.4511 77.6504 56.4723 78.9369 56.0881C81.7505 55.249 84.6051 55.2138 87.4741 55.6756C87.7988 55.7284 88.12 55.7885 88.4374 55.8571C88.6051 54.8508 88.7371 53.8319 88.83 52.8008C85.1599 51.9145 81.4951 52.3745 77.8733 53.7334ZM18.4211 76.4089C17.6058 76.6944 16.7584 76.8161 15.8911 76.7491C14.8116 76.6644 14.1266 75.9119 14.0569 74.7802C13.9784 73.476 14.3692 72.2985 14.9472 71.1529C15.998 69.073 17.7625 67.6613 19.5629 66.2759C21.3131 64.9276 23.1938 63.7765 25.0956 62.6573C25.6719 62.3189 25.6808 62.3224 25.8127 63.001C25.984 63.8718 26.1375 64.7442 26.0803 65.5357C26.2304 70.2821 22.7406 74.8983 18.4211 76.4089ZM44.6092 52.4749C44.3059 54.4755 43.6439 56.3807 42.9392 58.2631C41.9792 60.833 41.0444 63.415 39.8365 65.8862C39.5599 66.4555 39.2691 67.0213 38.8214 67.4848C38.3986 67.9237 38.0238 67.8726 37.7313 67.3367C37.1603 66.2897 37.2317 65.1248 37.139 64.2787C37.1658 60.0344 38.6074 56.5656 40.9821 53.4477C41.6458 52.5788 42.4932 51.872 43.6156 51.5881C44.3773 51.3963 44.7287 51.6994 44.6092 52.4749ZM61.2377 65.0403C60.4241 66.4292 59.2519 67.4391 57.8138 68.1582C57.6603 68.234 57.4624 68.3679 57.3232 68.1899C57.1913 68.0224 57.4035 67.9114 57.4998 67.8057C58.929 66.2634 60.3402 64.7088 61.6123 63.0361C61.632 63.0097 61.6801 63.0061 61.7889 62.9604C61.7764 63.7343 61.6052 64.4146 61.2377 65.0403ZM71.1059 64.9804C70.8937 65.0791 70.6474 65.2641 70.4405 65.1055C70.2122 64.9311 70.303 64.6226 70.3727 64.3864C70.6975 63.3096 71.1346 62.2784 71.7375 61.3178C72.2441 60.5088 72.8723 59.802 73.5627 59.1428C73.841 58.8784 73.9658 58.9101 74.0604 59.2909C74.1586 59.6803 74.1675 60.0698 74.1746 60.4664C74.1569 62.6362 73.0417 64.0798 71.1059 64.9804Z" fill="white"/>
</svg>
