<svg width="120" height="122" viewBox="0 0 120 122" fill="none" xmlns="http://www.w3.org/2000/svg">
<path d="M11.3105 102.307H15.0559C15.0559 101.305 15.4505 100.344 16.1529 99.6353C16.8553 98.9268 17.808 98.5288 18.8013 98.5288V94.7507C16.8146 94.7507 14.9093 95.5468 13.5045 96.9639C12.0997 98.3809 11.3105 100.303 11.3105 102.307Z" fill="#B4175E"/>
<path d="M24.4194 81.5275C24.4166 83.3449 24.7911 85.1428 25.5187 86.8055L28.9476 85.2942C28.4294 84.1074 28.1628 82.8244 28.1648 81.5275C28.1678 79.0234 29.1553 76.6228 30.9106 74.8521C32.666 73.0815 35.0459 72.0854 37.5284 72.0824V68.3043C34.0529 68.3083 30.7209 69.7028 28.2633 72.1817C25.8058 74.6607 24.4234 78.0217 24.4194 81.5275Z" fill="#B4175E"/>
<path d="M116.182 58.8592V51.3031C116.182 50.8812 116.042 50.4716 115.784 50.1395C115.526 49.8074 115.165 49.572 114.759 49.4707L112.343 48.8662L113.635 46.6938C113.845 46.3317 113.931 45.91 113.881 45.4937C113.83 45.0774 113.645 44.6894 113.355 44.3892L108.055 39.0433C107.757 38.7502 107.373 38.5638 106.96 38.5126C106.547 38.4614 106.129 38.5483 105.77 38.7599L103.616 40.0634L103.017 37.6265C102.917 37.217 102.683 36.8531 102.354 36.5929C102.025 36.3327 101.619 36.1912 101.201 36.1908H93.7098C93.2916 36.1912 92.8855 36.3327 92.5563 36.5929C92.2271 36.8531 91.9937 37.217 91.8933 37.6265L91.294 40.0634L89.1404 38.7599C88.7813 38.5483 88.3634 38.4614 87.9506 38.5126C87.5379 38.5638 87.1532 38.7502 86.8557 39.0433L81.5559 44.3892C81.2654 44.6894 81.0806 45.0774 81.0298 45.4937C80.9791 45.91 81.0652 46.3317 81.275 46.6938L82.099 48.0728C80.3744 47.7093 78.6173 47.5257 76.8554 47.525C76.2187 47.525 75.6007 47.5628 74.9827 47.6006V13.5225H74.5332C71.7616 7.32649 55.5065 4.07736 39.4011 4.07736C21.7227 4.07736 3.81959 7.96876 3.81959 15.4115V72.0824C3.81959 76.8238 10.6363 79.5629 16.9473 81.0742C16.9473 81.2253 16.9286 81.3764 16.9286 81.5275C16.9259 83.4568 17.1906 85.377 17.7151 87.2324C13.8407 87.5092 10.2243 89.2929 7.62856 92.2075C5.03284 95.1221 3.66073 98.9396 3.80162 102.855C3.9425 106.77 5.58536 110.478 8.38372 113.195C11.1821 115.912 14.9172 117.426 18.8013 117.419H101.201C105.174 117.419 108.985 115.827 111.794 112.993C114.604 110.159 116.182 106.315 116.182 102.307C116.182 98.2988 114.604 94.455 111.794 91.6209C108.985 88.7868 105.174 87.1946 101.201 87.1946H99.5527C101.867 83.1792 103.082 78.6159 103.073 73.9714C103.073 73.4803 103.036 73.008 103.017 72.5358L103.616 70.0989L105.77 71.4023C106.129 71.614 106.547 71.7009 106.96 71.6497C107.373 71.5985 107.757 71.412 108.055 71.119L113.355 65.773C113.645 65.4729 113.83 65.0849 113.881 64.6686C113.931 64.2522 113.845 63.8306 113.635 63.4684L112.343 61.296L114.759 60.6915C115.165 60.5903 115.526 60.3549 115.784 60.0228C116.042 59.6907 116.182 59.2811 116.182 58.8592ZM39.4011 7.85542C60.001 7.85542 71.2373 12.8425 71.2373 15.4115C71.2373 17.9806 60.001 22.9676 39.4011 22.9676C18.8013 22.9676 7.56502 17.9806 7.56502 15.4115C7.56502 12.8425 18.8013 7.85542 39.4011 7.85542ZM7.56502 20.7386C13.7262 24.6867 26.5918 26.7457 39.4011 26.7457C52.2105 26.7457 65.076 24.6867 71.2373 20.7386V34.3018C71.2373 36.8709 60.001 41.8579 39.4011 41.8579C18.8013 41.8579 7.56502 36.8709 7.56502 34.3018V20.7386ZM7.56502 39.6289C13.7262 43.5769 26.5918 45.636 39.4011 45.636C52.2105 45.636 65.076 43.5769 71.2373 39.6289V48.1673C64.5047 49.6834 58.6329 53.8085 54.8885 59.6526C49.7598 60.4019 44.5833 60.7681 39.4011 60.7482C18.8013 60.7482 7.56502 55.7612 7.56502 53.1921V39.6289ZM52.7161 63.7707C52.3443 64.6595 52.0193 65.5675 51.7423 66.4909C50.8237 65.6268 49.8338 64.8431 48.7834 64.1485C50.1318 64.0351 51.4427 63.9218 52.7161 63.7707ZM17.3593 77.2772C10.2243 75.5015 7.56502 73.2536 7.56502 72.0824V58.5192C11.6663 61.1449 18.7077 62.9395 26.7791 63.8462C24.3869 65.3222 22.3179 67.2743 20.6984 69.5835C19.0789 71.8927 17.9427 74.5105 17.3593 77.2772ZM101.201 90.9727C104.181 90.9727 107.039 92.1668 109.146 94.2924C111.253 96.4179 112.437 99.3008 112.437 102.307C112.437 105.313 111.253 108.196 109.146 110.321C107.039 112.447 104.181 113.641 101.201 113.641H18.8013C15.8212 113.641 12.9633 112.447 10.856 110.321C8.74884 108.196 7.56502 105.313 7.56502 102.307C7.56502 99.3008 8.74884 96.4179 10.856 94.2924C12.9633 92.1668 15.8212 90.9727 18.8013 90.9727H20.3744C20.6856 90.972 20.9919 90.8941 21.2662 90.7459C21.5405 90.5976 21.7745 90.3836 21.9475 90.1226C22.1133 89.8576 22.2136 89.5561 22.2396 89.2438C22.2657 88.9314 22.2169 88.6173 22.0973 88.328C21.1502 86.1886 20.6651 83.8705 20.674 81.5275C20.6749 77.9241 21.8108 74.4141 23.9178 71.5041C26.0248 68.5942 28.9939 66.4348 32.3966 65.3376C35.7993 64.2404 39.4596 64.2622 42.8493 65.3998C46.2389 66.5374 49.1826 68.732 51.2554 71.6668C51.4713 71.9753 51.7746 72.2108 52.1255 72.3423C52.4764 72.4737 52.8586 72.4951 53.2218 72.4035C53.5841 72.3131 53.9114 72.1156 54.1617 71.8362C54.412 71.5568 54.5737 71.2084 54.6263 70.8356C55.3871 65.4292 58.0523 60.4798 62.1343 56.8931C66.2162 53.3063 71.4419 51.3219 76.8554 51.3031C77.4921 51.3031 78.1101 51.3409 78.7281 51.3786V58.8592C78.7284 59.2811 78.8688 59.6907 79.1267 60.0228C79.3846 60.3549 79.7454 60.5903 80.1514 60.6915L82.5672 61.296L81.275 63.4684C81.0652 63.8306 80.9791 64.2522 81.0298 64.6686C81.0806 65.0849 81.2654 65.4729 81.5559 65.773L86.8557 71.119C87.1532 71.412 87.5379 71.5985 87.9506 71.6497C88.3634 71.7009 88.7813 71.614 89.1404 71.4023L91.294 70.0989L91.8933 72.5358C91.9937 72.9453 92.2271 73.3092 92.5563 73.5694C92.8855 73.8296 93.2916 73.9711 93.7098 73.9714H99.3279C99.3426 79.0322 97.6522 83.9479 94.5338 87.9124C94.3151 88.1916 94.1791 88.5273 94.1412 88.881C94.1034 89.2346 94.1653 89.5919 94.3199 89.9117C94.4745 90.2314 94.7154 90.5006 95.015 90.6883C95.3146 90.876 95.6606 90.9746 96.0132 90.9727H101.201ZM112.437 57.3857L108.991 58.2547C108.707 58.3305 108.443 58.4701 108.219 58.663C107.995 58.856 107.817 59.0974 107.699 59.3692C107.59 59.6438 107.546 59.9399 107.569 60.2347C107.591 60.5294 107.681 60.815 107.83 61.0693L109.665 64.1296L106.426 67.3976L103.392 65.5463C103.14 65.3957 102.856 65.3055 102.564 65.2826C102.272 65.2596 101.979 65.3046 101.706 65.4141C101.437 65.5336 101.197 65.7128 101.006 65.9385C100.815 66.1642 100.677 66.4305 100.601 66.7175L99.74 70.1934H95.1705L94.3091 66.7175C94.2339 66.4305 94.0956 66.1642 93.9043 65.9385C93.713 65.7128 93.4737 65.5336 93.2042 65.4141C92.9319 65.3046 92.6384 65.2596 92.3462 65.2826C92.054 65.3055 91.7709 65.3957 91.5187 65.5463L88.4849 67.3976L85.2451 64.1296L87.0804 61.0693C87.2297 60.815 87.3192 60.5294 87.3419 60.2347C87.3646 59.9399 87.32 59.6438 87.2115 59.3692C87.0931 59.0974 86.9154 58.856 86.6917 58.663C86.4679 58.4701 86.2039 58.3305 85.9193 58.2547L82.4735 57.3857V52.7765L85.9193 51.9076C86.2039 51.8318 86.4679 51.6922 86.6917 51.4992C86.9154 51.3063 87.0931 51.0649 87.2115 50.793C87.32 50.5184 87.3646 50.2223 87.3419 49.9276C87.3192 49.6329 87.2297 49.3473 87.0804 49.0929L85.2451 46.0327L88.4849 42.7647L91.5187 44.6159C91.7709 44.7665 92.054 44.8568 92.3462 44.8797C92.6384 44.9026 92.9319 44.8576 93.2042 44.7481C93.4737 44.6287 93.713 44.4495 93.9043 44.2238C94.0956 43.9981 94.2339 43.7318 94.3091 43.4447L95.1705 39.9689H99.74L100.601 43.4447C100.677 43.7318 100.815 43.9981 101.006 44.2238C101.197 44.4495 101.437 44.6287 101.706 44.7481C101.979 44.8576 102.272 44.9026 102.564 44.8797C102.856 44.8568 103.14 44.7665 103.392 44.6159L106.426 42.7647L109.665 46.0327L107.83 49.0929C107.681 49.3473 107.591 49.6329 107.569 49.9276C107.546 50.2223 107.59 50.5184 107.699 50.793C107.817 51.0649 107.995 51.3063 108.219 51.4992C108.443 51.6922 108.707 51.8318 108.991 51.9076L112.437 52.7765V57.3857Z" fill="#B4175E"/>
<path d="M97.4552 47.525C95.9737 47.525 94.5254 47.9682 93.2935 48.7985C92.0616 49.6287 91.1015 50.8088 90.5346 52.1895C89.9676 53.5702 89.8193 55.0895 90.1083 56.5553C90.3973 58.021 91.1108 59.3674 92.1584 60.4241C93.206 61.4809 94.5407 62.2005 95.9938 62.4921C97.4469 62.7836 98.9531 62.634 100.322 62.0621C101.691 61.4902 102.861 60.5217 103.684 59.2791C104.507 58.0365 104.946 56.5756 104.946 55.0811C104.946 53.0771 104.157 51.1552 102.752 49.7382C101.347 48.3211 99.4419 47.525 97.4552 47.525ZM97.4552 58.8592C96.7144 58.8592 95.9903 58.6376 95.3744 58.2225C94.7584 57.8073 94.2784 57.2173 93.9949 56.5269C93.7114 55.8366 93.6372 55.0769 93.7818 54.3441C93.9263 53.6112 94.283 52.938 94.8068 52.4096C95.3306 51.8813 95.998 51.5215 96.7245 51.3757C97.4511 51.2299 98.2041 51.3047 98.8885 51.5907C99.5729 51.8766 100.158 52.3609 100.569 52.9822C100.981 53.6035 101.201 54.3339 101.201 55.0811C101.201 56.0831 100.806 57.0441 100.104 57.7526C99.4012 58.4612 98.4486 58.8592 97.4552 58.8592Z" fill="#B4175E"/>
</svg>
