<svg width="96" height="96" viewBox="0 0 96 96" fill="none" xmlns="http://www.w3.org/2000/svg">
<rect width="95.5996" height="95.5996" rx="10" fill="#0ED383"/>
<g clip-path="url(#clip0)">
<path d="M85.4602 47.7952C85.4586 47.0312 85.0618 46.3224 84.4114 45.9214L76.7567 41.2027L84.4195 36.4332C85.0658 36.031 85.459 35.3242 85.4602 34.5631C85.4613 33.802 85.0702 33.094 84.4251 32.6898L48.9715 10.4761C48.2549 10.0272 47.3447 10.0272 46.6281 10.4761L11.1745 32.6898C10.5295 33.094 10.1384 33.802 10.1394 34.5631C10.1406 35.3243 10.5338 36.0312 11.1801 36.4332L18.7904 41.1699L11.1767 45.9288C10.5309 46.3324 10.1388 47.0405 10.1396 47.8021C10.1403 48.5637 10.5337 49.271 11.1802 49.6735L18.7905 54.4101L11.1767 59.1687C10.5319 59.5718 10.14 60.2784 10.1396 61.0388C10.1391 61.7992 10.5303 62.5062 11.1746 62.9099L46.6283 85.1236C46.9866 85.3481 47.3933 85.4603 47.7999 85.4603C48.2065 85.4603 48.6132 85.3481 48.9715 85.1236L84.4251 62.9099C85.0715 62.5049 85.463 61.7946 85.4602 61.0319C85.4574 60.2691 85.0608 59.5618 84.4114 59.1615L76.7567 54.4428L84.4195 49.6733C85.0681 49.2696 85.4618 48.5591 85.4602 47.7952ZM16.5122 34.5539L47.7999 14.9504L79.0875 34.5539C78.7868 34.741 48.6965 53.4694 47.7999 54.0275L16.5122 34.5539ZM79.0731 61.0553L47.7999 80.6497L16.5061 61.0423L22.9626 57.0069L46.6339 71.7401C46.9908 71.9622 47.3953 72.0733 47.7999 72.0733C48.2044 72.0733 48.609 71.9622 48.9659 71.7401L72.5718 57.0475L79.0731 61.0553ZM47.7999 67.2675L16.5159 47.7962L22.9626 43.767L46.6339 58.5001C46.9908 58.7222 47.3953 58.8333 47.7999 58.8333C48.2044 58.8333 48.609 58.7222 48.9659 58.5001L72.5718 43.8076L79.0631 47.809C78.8837 47.9206 48.6281 66.7518 47.7999 67.2675Z" fill="white"/>
</g>
<defs>
<clipPath id="clip0">
<rect x="10.1394" y="10.1394" width="75.3209" height="75.3209" rx="10" fill="white"/>
</clipPath>
</defs>
</svg>
