<svg width="96" height="96" viewBox="0 0 96 96" fill="none" xmlns="http://www.w3.org/2000/svg">
<rect width="95.5996" height="95.5996" rx="10" fill="#FB8645"/>
<g clip-path="url(#clip0)">
<path d="M15.515 13.309L20.3094 74.6456C20.3814 75.5666 21.0049 76.3521 21.8856 76.6313L47.1142 84.63C47.5603 84.7714 48.0393 84.7714 48.4855 84.63L73.7141 76.6313C74.5948 76.3521 75.2182 75.5666 75.2902 74.6456L80.0847 13.309C80.1878 11.9903 79.1456 10.8635 77.823 10.8635H17.7768C16.4542 10.8635 15.412 11.9903 15.515 13.309ZM67.7896 32.3397H36.5431L37.4861 41.0355H67.11L65.1721 65.8259L47.7999 71.3337L30.4277 65.8259L29.4153 52.8744H38.5336V59.2273L48.0436 61.7796L57.4967 59.2273L58.2301 49.1025H29.1204L27.1878 24.3771H68.4119L67.7896 32.3397Z" fill="white"/>
</g>
<defs>
<clipPath id="clip0">
<rect width="73.8725" height="73.8725" fill="white" transform="translate(10.8636 10.8635)"/>
</clipPath>
</defs>
</svg>
