<svg width="96" height="96" viewBox="0 0 96 96" fill="none" xmlns="http://www.w3.org/2000/svg">
<rect width="95.6" height="95.6" rx="10" fill="#06C5F9"/>
<path d="M88.113 47.7063C88.113 41.8003 81.4668 36.2033 71.2772 32.7324C73.6286 21.1749 72.5835 11.9797 67.9786 9.03582C66.9172 8.34527 65.6761 8.01817 64.3208 8.01817V12.0706C65.0719 12.0706 65.6761 12.2341 66.1823 12.5431C68.4032 13.9605 69.3666 19.3576 68.6154 26.2994C68.4358 28.0076 68.1419 29.8067 67.7826 31.642C64.582 30.7698 61.0875 30.0974 57.4133 29.6613C55.2088 26.2994 52.9227 23.2465 50.6202 20.5752C55.9437 15.069 60.9405 12.0524 64.3371 12.0524V8C59.8465 8 53.9678 11.5618 48.0238 17.7403C42.0799 11.5981 36.2012 8.07269 31.7106 8.07269V12.1251C35.0908 12.1251 40.104 15.1235 45.4274 20.5933C43.1413 23.2647 40.8551 26.2994 38.6833 29.6613C34.9928 30.0974 31.4983 30.7698 28.2977 31.6602C27.9221 29.843 27.6445 28.0803 27.4485 26.3903C26.6811 19.4485 27.6282 14.0513 29.8327 12.6157C30.3226 12.2886 30.9594 12.1433 31.7106 12.1433V8.09086C30.3389 8.09086 29.0978 8.41796 28.0201 9.1085C23.4315 12.0524 22.4027 21.2294 24.7705 32.7505C14.6135 36.2396 8 41.8185 8 47.7063C8 53.6122 14.6461 59.2093 24.8358 62.6802C22.4843 74.2377 23.5294 83.4328 28.1344 86.3767C29.1958 87.0673 30.4369 87.3944 31.8085 87.3944C36.2992 87.3944 42.1778 83.8326 48.1218 77.6541C54.0658 83.7963 59.9444 87.3217 64.4351 87.3217C65.8068 87.3217 67.0478 86.9946 68.1256 86.304C72.7142 83.3601 73.7429 74.1832 71.3751 62.662C81.4995 59.1911 88.113 53.5941 88.113 47.7063ZM66.8518 35.5854C66.2477 37.9296 65.4965 40.3465 64.6474 42.7634C63.9778 41.3097 63.2757 39.8559 62.5082 38.4021C61.757 36.9483 60.9569 35.5309 60.1567 34.1498C62.4755 34.5314 64.7127 35.0039 66.8518 35.5854ZM59.3729 54.9388C58.0992 57.3921 56.7928 59.7181 55.4375 61.8806C53.0044 62.1168 50.5386 62.244 48.0565 62.244C45.5907 62.244 43.125 62.1168 40.7082 61.8988C39.3528 59.7363 38.0301 57.4284 36.7564 54.9933C35.5154 52.6128 34.3886 50.1959 33.3599 47.7608C34.3723 45.3257 35.5154 42.8906 36.7401 40.5101C38.0138 38.0568 39.3202 35.7308 40.6755 33.5683C43.1086 33.3321 45.5744 33.2049 48.0565 33.2049C50.5223 33.2049 52.988 33.3321 55.4048 33.5501C56.7602 35.7126 58.0829 38.0205 59.3566 40.4556C60.5976 42.8361 61.7244 45.253 62.7531 47.6881C61.7244 50.1232 60.5976 52.5583 59.3729 54.9388ZM64.6474 52.5764C65.5291 55.0115 66.2803 57.4466 66.9008 59.809C64.7617 60.3905 62.5082 60.8811 60.173 61.2627C60.9732 59.8635 61.7734 58.4279 62.5245 56.9559C63.2757 55.5022 63.9778 54.0302 64.6474 52.5764ZM48.0892 71.9662C46.5705 70.2216 45.0518 68.2772 43.5495 66.1511C45.0192 66.2238 46.5215 66.2783 48.0402 66.2783C49.5751 66.2783 51.0938 66.2419 52.5798 66.1511C51.1101 68.2772 49.5915 70.2216 48.0892 71.9662ZM35.9399 61.2627C33.6211 60.8811 31.384 60.4087 29.2448 59.8271C29.849 57.4829 30.6002 55.066 31.4493 52.6491C32.1188 54.1029 32.821 55.5567 33.5885 57.0104C34.356 58.4642 35.1398 59.8817 35.9399 61.2627ZM48.0075 23.4464C49.5262 25.1909 51.0448 27.1353 52.5471 29.2615C51.0775 29.1888 49.5751 29.1343 48.0565 29.1343C46.5215 29.1343 45.0029 29.1706 43.5169 29.2615C44.9865 27.1353 46.5052 25.1909 48.0075 23.4464ZM35.9236 34.1498C35.1235 35.5491 34.3233 36.9847 33.5721 38.4566C32.821 39.9104 32.1188 41.3642 31.4493 42.818C30.5675 40.3829 29.8163 37.9478 29.1958 35.5854C31.335 35.0221 33.5885 34.5314 35.9236 34.1498ZM21.1453 56.9014C15.3646 54.1574 11.6252 50.5593 11.6252 47.7063C11.6252 44.8532 15.3646 41.237 21.1453 38.5111C22.5497 37.8388 24.0846 37.2391 25.6686 36.6757C26.5994 40.2375 27.8241 43.9446 29.3428 47.7426C27.8405 51.5224 26.6321 55.2114 25.7176 58.755C24.101 58.1916 22.566 57.5738 21.1453 56.9014ZM29.9306 82.8695C27.7098 81.4521 26.7464 76.0549 27.4975 69.1131C27.6772 67.4049 27.9711 65.6059 28.3303 63.7705C31.5309 64.6428 35.0255 65.3151 38.6996 65.7513C40.9041 69.1131 43.1903 72.1661 45.4927 74.8374C40.1693 80.3436 35.1724 83.3602 31.7759 83.3602C31.0411 83.342 30.4205 83.1784 29.9306 82.8695ZM68.6644 69.0223C69.4319 75.9641 68.4848 81.3612 66.2803 82.7968C65.7904 83.1239 65.1536 83.2693 64.4024 83.2693C61.0222 83.2693 56.009 80.2709 50.6856 74.801C52.9717 72.1297 55.2578 69.095 57.4297 65.7331C61.1202 65.297 64.6147 64.6246 67.8153 63.7342C68.1909 65.5696 68.4848 67.3323 68.6644 69.0223ZM74.9513 56.9014C73.547 57.5738 72.012 58.1735 70.428 58.7368C69.4972 55.1751 68.2725 51.4679 66.7539 47.6699C68.2562 43.8901 69.4646 40.2012 70.379 36.6576C71.9957 37.2209 73.5306 37.8388 74.9677 38.5111C80.7483 41.2551 84.4878 44.8532 84.4878 47.7063C84.4715 50.5593 80.732 54.1756 74.9513 56.9014Z" fill="white"/>
<path d="M48.0565 55.6367C52.2045 55.6367 55.5671 51.8729 55.5671 47.2302C55.5671 42.5874 52.2045 38.8237 48.0565 38.8237C43.9085 38.8237 40.5459 42.5874 40.5459 47.2302C40.5459 51.8729 43.9085 55.6367 48.0565 55.6367Z" fill="white"/>
</svg>
