<svg width="51" height="47" viewBox="0 0 51 47" fill="none" xmlns="http://www.w3.org/2000/svg">
<g clip-path="url(#clip0)">
<path d="M50.4172 3.50877C50.3079 1.64181 48.7132 0.157175 46.7082 0.0552807C42.6624 -0.150528 34.7454 0.0496813 27.1751 3.69558C23.3159 5.55428 19.2344 8.70557 15.9772 12.3415C15.9371 12.3863 15.898 12.4313 15.8582 12.4762L8.46614 13.0079C7.24938 13.0955 6.16561 13.6893 5.49266 14.637L0.449535 21.7395C-0.0608506 22.4583 -0.141988 23.3578 0.232347 24.1457C0.606781 24.9337 1.37615 25.4828 2.29055 25.6147L8.51839 26.5129C8.49641 26.6256 8.47433 26.7382 8.45411 26.851C8.24679 28.0058 8.6577 29.1931 9.55346 30.027L18.2283 38.1045C18.971 38.796 19.9745 39.1773 21.0028 39.1773C21.2145 39.1773 21.4275 39.161 21.6394 39.1281C21.7605 39.1092 21.8815 39.0887 22.0025 39.0682L22.9671 44.8672C23.1088 45.7186 23.6985 46.4351 24.5446 46.7836C24.8967 46.9287 25.2692 47.0003 25.6401 47.0003C26.1609 47.0002 26.6781 46.859 27.1289 46.5815L34.7568 41.8856C35.7747 41.2589 36.4123 40.2498 36.5062 39.117L37.0772 32.2341C37.1254 32.197 37.1739 32.1607 37.222 32.1233C41.127 29.0904 44.5115 25.2901 46.5075 21.6966C50.4233 14.6474 50.6379 7.27565 50.4172 3.50877ZM33.1256 39.5883L25.8291 44.0802L24.889 38.4288C27.9728 37.5845 31.0234 36.2323 33.9296 34.4209L33.5576 38.9047C33.5345 39.1844 33.3769 39.4337 33.1256 39.5883ZM20.3197 36.1572L11.6447 28.0798C11.4234 27.8736 11.321 27.584 11.3712 27.305C11.6291 25.869 12.0299 24.5021 12.526 23.2143L25.5422 35.3341C23.8812 35.8881 22.3934 36.2186 21.1517 36.4119C20.8516 36.4583 20.541 36.3633 20.3197 36.1572ZM8.69398 15.7536L13.5094 15.4073C11.5638 18.1134 10.1117 20.9538 9.20495 23.8253L3.13554 22.95L7.9598 16.1559C8.12602 15.9218 8.39368 15.7752 8.69398 15.7536ZM35.3278 30.0084C32.9387 31.8639 30.6196 33.206 28.4821 34.1771L13.7708 20.4791C15.137 17.8809 16.8044 15.7173 18.2483 14.1055C21.2626 10.7407 25.0116 7.838 28.534 6.1416C35.4819 2.79533 42.802 2.61513 46.5472 2.80496C47.0429 2.83012 47.4371 3.19721 47.4641 3.65886C47.6683 7.14604 47.4744 13.962 43.8806 20.4313C42.0588 23.7111 38.9414 27.2017 35.3278 30.0084Z" fill="white"/>
<path d="M34.5766 21.6864C36.4696 21.6862 38.3635 21.0152 39.8047 19.6732C41.2013 18.3729 41.9703 16.644 41.9703 14.8052C41.9703 12.9663 41.2012 11.2374 39.8047 9.93707C36.9219 7.25266 32.2311 7.25284 29.3484 9.93707C27.9518 11.2374 27.1827 12.9663 27.1827 14.8052C27.1827 16.644 27.9519 18.3729 29.3484 19.6732C30.7899 21.0155 32.6828 21.6866 34.5766 21.6864ZM31.4395 11.8843C32.3043 11.0789 33.4404 10.6763 34.5764 10.6763C35.7125 10.6763 36.8485 11.0789 37.7133 11.8843C38.5512 12.6644 39.0126 13.7018 39.0126 14.8051C39.0126 15.9084 38.5512 16.9458 37.7133 17.7259C35.9837 19.3365 33.1691 19.3364 31.4394 17.7259C30.6015 16.9458 30.1401 15.9085 30.1401 14.8052C30.1401 13.7018 30.6016 12.6644 31.4395 11.8843Z" fill="white"/>
<path d="M1.50909 38.7326C1.88757 38.7326 2.26604 38.5982 2.55471 38.3292L7.38281 33.8336C7.96033 33.2959 7.96033 32.4241 7.38281 31.8863C6.80539 31.3486 5.86901 31.3486 5.29148 31.8863L0.463477 36.3819C-0.114046 36.9197 -0.114046 37.7915 0.463477 38.3292C0.75214 38.5981 1.13062 38.7326 1.50909 38.7326Z" fill="white"/>
<path d="M11.8069 36.0063C11.2295 35.4686 10.2931 35.4686 9.71557 36.0063L0.433203 44.6495C-0.14432 45.1872 -0.14432 46.059 0.433203 46.5968C0.721965 46.8656 1.10034 47 1.47882 47C1.85729 47 2.23577 46.8656 2.52443 46.5967L11.8068 37.9536C12.3844 37.4159 12.3844 36.5441 11.8069 36.0063Z" fill="white"/>
<path d="M14.1402 40.1262L9.31214 44.6218C8.73462 45.1595 8.73462 46.0313 9.31214 46.5691C9.6009 46.8379 9.97938 46.9724 10.3578 46.9724C10.7361 46.9724 11.1147 46.838 11.4034 46.5691L16.2315 42.0735C16.809 41.5358 16.809 40.664 16.2315 40.1262C15.6541 39.5885 14.7177 39.5885 14.1402 40.1262Z" fill="white"/>
</g>
<defs>
<clipPath id="clip0">
<rect width="50.4766" height="47" fill="white"/>
</clipPath>
</defs>
</svg>
