<svg width="118" height="119" viewBox="0 0 118 119" fill="none" xmlns="http://www.w3.org/2000/svg">
<g clip-path="url(#clip0)">
<path d="M28.6058 29.6824C27.7421 28.9255 26.4334 29.0176 25.683 29.8888L1.35522 58.1208C0.678874 58.9068 0.678874 60.0766 1.35522 60.8626L25.683 89.0946C26.4264 89.9716 27.7352 90.0731 28.6035 89.3232C29.4729 88.5721 29.5746 87.2531 28.8301 86.3761L28.8104 86.3528L5.66421 59.4911L28.8093 32.6306C29.5608 31.7594 29.4683 30.4392 28.6058 29.6824Z" fill="#B4175E"/>
<path d="M92.6263 29.8888C91.8737 29.0281 90.573 28.9406 89.714 29.694C88.855 30.4474 88.759 31.7583 89.4989 32.6306L112.645 59.4911L89.5001 86.3528C88.759 87.2252 88.855 88.536 89.7151 89.2894C90.5742 90.0428 91.8737 89.9553 92.6275 89.0946L116.954 60.8626C117.632 60.0766 117.632 58.9068 116.954 58.1208L92.6263 29.8888Z" fill="#B4175E"/>
<path d="M85.3703 2.16299C84.3321 1.67901 83.1008 2.13733 82.6222 3.1846L31.925 114.047C31.4452 115.095 31.8995 116.336 32.9389 116.82C33.9771 117.303 35.2084 116.846 35.6871 115.797L86.3843 4.93627C86.8629 3.88784 86.4097 2.64581 85.3703 2.16299Z" fill="#B4175E"/>
</g>
<defs>
<clipPath id="clip0">
<rect width="116.614" height="117.63" fill="white" transform="translate(0.847656 0.4776)"/>
</clipPath>
</defs>
</svg>
